<svg width="59" height="62" viewBox="0 0 59 62" fill="none" xmlns="http://www.w3.org/2000/svg">
<path d="M13.2204 33.0313V50.0872H6.46054V28.7632H13.2204" stroke="#828282" stroke-width="1.5" stroke-miterlimit="10" stroke-linecap="square"/>
<path d="M26.3701 33.0313V50.0872H19.6102V28.7632H26.3701" stroke="#828282" stroke-width="1.5" stroke-miterlimit="10" stroke-linecap="square"/>
<path d="M39.528 33.0313V50.0872H32.7681V28.7632H39.528" stroke="#828282" stroke-width="1.5" stroke-miterlimit="10" stroke-linecap="square"/>
<path d="M52.6776 33.0313V50.0872H45.9178V28.7632H52.6776" stroke="#828282" stroke-width="1.5" stroke-miterlimit="10" stroke-linecap="square"/>
<path d="M58.1382 26.9125V28.7629H1V23.3105H58.1382" stroke="#828282" stroke-width="1.5" stroke-miterlimit="10" stroke-linecap="square"/>
<path d="M54.1661 50.0869H4.97205V55.5392H54.1661V50.0869Z" stroke="#828282" stroke-width="1.5" stroke-miterlimit="10" stroke-linecap="square"/>
<path d="M58.1382 59.3142V61.0001H1V55.5396H58.1382" stroke="#828282" stroke-width="1.5" stroke-miterlimit="10" stroke-linecap="square"/>
<path d="M29.5691 1L3.56579 23.3109H55.5724L29.5691 1Z" stroke="#828282" stroke-width="1.5" stroke-miterlimit="10" stroke-linecap="square"/>
<path d="M29.5691 17.7683C31.6765 17.7683 33.3849 16.0599 33.3849 13.9525C33.3849 11.8451 31.6765 10.1367 29.5691 10.1367C27.4617 10.1367 25.7533 11.8451 25.7533 13.9525C25.7533 16.0599 27.4617 17.7683 29.5691 17.7683Z" stroke="#828282" stroke-width="1.5" stroke-miterlimit="10" stroke-linecap="square"/>
<path d="M44.273 12.9407V3.27783" stroke="#828282" stroke-width="1.5" stroke-miterlimit="10" stroke-linecap="square"/>
<path d="M50.6628 3.27783H44.273V7.57883H50.6628V3.27783Z" stroke="#828282" stroke-width="1.5" stroke-miterlimit="10" stroke-linecap="square"/>
</svg>
