<svg width="92" height="98" viewBox="0 0 92 98" fill="none" xmlns="http://www.w3.org/2000/svg">
<path d="M40.9995 52.42V79.8H30.3416V45.5684H40.9995" stroke="#D7B15C" stroke-width="1.2" stroke-miterlimit="10" stroke-linecap="square"/>
<path d="M49.7903 52.42V79.8H60.4482V45.5684H49.7903" stroke="#D7B15C" stroke-width="1.2" stroke-miterlimit="10" stroke-linecap="square"/>
<path d="M91.0865 37.1189V45.5681H1V36.8154H91.0865" stroke="#D7B15C" stroke-width="1.2" stroke-miterlimit="10" stroke-linecap="square"/>
<path d="M84.824 79.8008H7.26245V88.5534H84.824V79.8008Z" stroke="#D7B15C" stroke-width="1.2" stroke-miterlimit="10" stroke-linecap="square"/>
<path d="M91.0865 88.5527V97.3186H1V88.5527L91.0865 88.5527Z" stroke="#D7B15C" stroke-width="1.2" stroke-miterlimit="10" stroke-linecap="square"/>
<path d="M46.0432 1L5.04529 36.8158H87.0412L46.0432 1Z" stroke="#D7B15C" stroke-width="1.2" stroke-miterlimit="10" stroke-linecap="square"/>
<path d="M46.0432 27.9171C49.3658 27.9171 52.0593 25.1746 52.0593 21.7915C52.0593 18.4085 49.3658 15.666 46.0432 15.666C42.7206 15.666 40.027 18.4085 40.027 21.7915C40.027 25.1746 42.7206 27.9171 46.0432 27.9171Z" stroke="#D7B15C" stroke-width="1.2" stroke-miterlimit="10" stroke-linecap="square"/>
<path d="M72.3719 62.167L78.0809 45.8857L83.272 62.2029" stroke="#D7B15C" stroke-width="1.2" stroke-miterlimit="10" stroke-linecap="square" stroke-linejoin="bevel"/>
<path d="M85.298 62.3779C85.298 66.3957 82.1026 69.6491 78.1567 69.6491C74.2107 69.6491 71.0153 66.3957 71.0153 62.3779H78.1567H85.298Z" stroke="#D7B15C" stroke-width="1.2" stroke-miterlimit="10" stroke-linecap="square"/>
<path d="M8.8396 62.167L14.5485 45.8857L20.0631 62.2029" stroke="#D7B15C" stroke-width="1.2" stroke-miterlimit="10" stroke-linecap="square" stroke-linejoin="bevel"/>
<path d="M21.7655 62.3779C21.7655 66.3957 18.5702 69.6491 14.6242 69.6491C10.6782 69.6491 7.48285 66.3957 7.48285 62.3779H14.6242H21.7655Z" stroke="#D7B15C" stroke-width="1.2" stroke-miterlimit="10" stroke-linecap="square"/>
</svg>
