<svg width="24" height="33" viewBox="0 0 24 33" fill="none" xmlns="http://www.w3.org/2000/svg">
<path d="M22.4114 11.7057C22.4114 13.3826 22.0269 14.967 21.3413 16.3799C19.6041 19.9515 11.7057 31 11.7057 31C11.7057 31 3.99258 20.0766 2.20907 16.6532C1.43545 15.1754 1 13.4938 1 11.7057C1 5.79463 5.79462 1 11.7057 1C17.6167 1 22.4114 5.79463 22.4114 11.7057Z" stroke="#828282" stroke-width="1.5" stroke-miterlimit="10" stroke-linecap="square"/>
<path d="M15.9506 12.7187C16.5066 10.3737 15.0564 8.02194 12.7114 7.46594C10.3664 6.90994 8.01467 8.36021 7.45867 10.7052C6.90267 13.0502 8.35293 15.4019 10.6979 15.9579C13.0429 16.5139 15.3946 15.0636 15.9506 12.7187Z" stroke="#828282" stroke-width="1.5" stroke-miterlimit="10" stroke-linecap="square"/>
</svg>
