<svg width="16" height="32" viewBox="0 0 16 32" fill="none" xmlns="http://www.w3.org/2000/svg">
<path d="M5.19952 11.2014C5.06439 10.148 5.20645 9.95394 5.20645 9.95394L7.07411 8.32306C7.56268 7.93036 7.75672 7.11723 7.53495 6.4196L6.0935 1.87347C5.88213 1.2128 5.33812 0.86168 4.81837 1.0511L3.42888 1.56393C3.31107 1.61013 3.19326 1.67019 3.08585 1.75797C-0.185149 4.49766 0.864761 12.1947 3.00269 18.9307C5.08171 25.4865 8.55368 32.2133 12.3236 30.8135C12.4311 30.7719 12.5315 30.7118 12.6286 30.6379L13.8933 29.6538C14.3576 29.2888 14.5517 28.5219 14.3403 27.8613L12.8988 23.3197C12.6771 22.6221 12.1053 22.2433 11.5509 22.4373L9.37142 23.0887C9.37142 23.0887 8.59179 23.0472 6.63751 16.884C5.94104 14.6849 5.55642 13.1741 5.35198 12.1392C5.28268 11.7696 5.23417 11.4601 5.19952 11.2014Z" stroke="#828282" stroke-width="1.5" stroke-miterlimit="10" stroke-linecap="square"/>
</svg>
