<svg width="14" height="20" viewBox="0 0 14 20" fill="none" xmlns="http://www.w3.org/2000/svg">
<path d="M13.1331 7.06655C13.1331 8.01683 12.9152 8.91461 12.5267 9.71526C11.5423 11.7392 7.06655 18 7.06655 18C7.06655 18 2.6958 11.8101 1.68514 9.87013C1.24675 9.03273 1 8.07983 1 7.06655C1 3.71696 3.71695 1 7.06655 1C10.4161 1 13.1331 3.71696 13.1331 7.06655Z" stroke="white" stroke-width="1.5" stroke-miterlimit="10" stroke-linecap="square"/>
<path d="M9.47195 7.64018C9.78701 6.31135 8.9652 4.97871 7.63637 4.66364C6.30754 4.34857 4.9749 5.17039 4.65983 6.49922C4.34477 7.82805 5.16658 9.16069 6.49541 9.47575C7.82424 9.79082 9.15688 8.96901 9.47195 7.64018Z" stroke="white" stroke-width="1.5" stroke-miterlimit="10" stroke-linecap="square"/>
</svg>
