<svg width="122" height="153" viewBox="0 0 122 153" fill="none" xmlns="http://www.w3.org/2000/svg">
<path d="M60.4597 72.0286C48.575 72.0286 38.8511 62.3047 38.8511 50.4199H14.8415C14.8415 75.63 35.2497 96.0382 60.4597 96.0382V72.0286Z" fill="#BDBDBD"/>
<path d="M60.4597 72.0286C48.575 72.0286 38.8511 62.3047 38.8511 50.4199H14.8415C14.8415 75.63 35.2497 96.0382 60.4597 96.0382V72.0286Z" fill="#BDBDBD"/>
<path d="M60.4598 61.9445V50.4199H48.9352C51.2161 55.582 55.2977 59.7837 60.4598 61.9445Z" fill="#BDBDBD"/>
<path d="M60.4597 0C35.8499 0 15.4418 17.527 11 40.8163H34.5294H48.575H70.1837V62.425V76.4706V100C93.473 95.5582 111 75.03 111 50.5402C110.88 22.569 88.3109 0 60.4597 0ZM79.6674 86.4346V31.2125H24.4453C31.4081 18.2473 45.0936 9.60384 60.4597 9.60384C82.9087 9.60384 101.276 27.9712 101.276 50.4202C101.276 65.7863 92.7526 79.5918 79.6674 86.4346Z" fill="#BDBDBD"/>
<path d="M4.55615 137V126.776H0.524148V124.4H11.5041V126.776H7.47215V137H4.55615ZM15.9711 134.66H22.8291V137H13.0731V124.4H22.5951V126.74H15.9711V129.476H21.8211V131.744H15.9711V134.66ZM31.1441 137.216C27.2381 137.216 24.3221 134.498 24.3221 130.7C24.3221 126.902 27.2381 124.184 31.1621 124.184C33.3401 124.184 35.1581 124.976 36.3461 126.416L34.4741 128.144C33.6281 127.172 32.5661 126.668 31.3061 126.668C28.9481 126.668 27.2741 128.324 27.2741 130.7C27.2741 133.076 28.9481 134.732 31.3061 134.732C32.5661 134.732 33.6281 134.228 34.4741 133.238L36.3461 134.966C35.1581 136.424 33.3401 137.216 31.1441 137.216ZM46.9553 124.4H49.8713V137H46.9553V131.834H41.2313V137H38.3153V124.4H41.2313V129.368H46.9553V124.4ZM62.1044 130.448C63.5084 130.898 64.4084 131.978 64.4084 133.562C64.4084 135.74 62.6804 137 59.3684 137H52.8524V124.4H59.0084C62.1584 124.4 63.7784 125.714 63.7784 127.676C63.7784 128.936 63.1304 129.908 62.1044 130.448ZM58.6484 126.596H55.7504V129.566H58.6484C60.0704 129.566 60.8444 129.062 60.8444 128.072C60.8444 127.082 60.0704 126.596 58.6484 126.596ZM59.1524 134.804C60.6644 134.804 61.4744 134.336 61.4744 133.256C61.4744 132.194 60.6644 131.69 59.1524 131.69H55.7504V134.804H59.1524ZM77.7761 137H74.6441L72.2141 133.49H72.0701H69.5321V137H66.6161V124.4H72.0701C75.4361 124.4 77.5421 126.146 77.5421 128.972C77.5421 130.862 76.5881 132.248 74.9501 132.95L77.7761 137ZM74.5901 128.972C74.5901 127.586 73.6901 126.776 71.9081 126.776H69.5321V131.168H71.9081C73.6901 131.168 74.5901 130.34 74.5901 128.972ZM89.2664 137L88.1504 134.3H82.3004L81.1844 137H78.1964L83.8124 124.4H86.6924L92.3264 137H89.2664ZM83.2364 132.086H87.2324L85.2344 127.262L83.2364 132.086ZM102.31 124.4H105.19V137H102.796L96.5136 129.35V137H93.6336V124.4H96.0456L102.31 132.05V124.4ZM108.171 137V124.4H113.895C118.017 124.4 120.843 126.884 120.843 130.7C120.843 134.516 118.017 137 113.895 137H108.171ZM111.087 134.606H113.751C116.253 134.606 117.891 133.112 117.891 130.7C117.891 128.288 116.253 126.794 113.751 126.794H111.087V134.606Z" fill="#BDBDBD"/>
<path d="M9.76238 144.877L7.58638 148.493V150.477H6.29037V148.477L4.12237 144.877H5.49838L6.99438 147.365L8.49038 144.877H9.76238ZM12.7744 150.573C11.0064 150.573 9.71044 149.341 9.71044 147.677C9.71044 146.013 11.0064 144.781 12.7744 144.781C14.5344 144.781 15.8384 146.005 15.8384 147.677C15.8384 149.349 14.5344 150.573 12.7744 150.573ZM12.7744 149.469C13.7744 149.469 14.5264 148.741 14.5264 147.677C14.5264 146.613 13.7744 145.885 12.7744 145.885C11.7744 145.885 11.0224 146.613 11.0224 147.677C11.0224 148.741 11.7744 149.469 12.7744 149.469ZM19.3004 150.573C17.7084 150.573 16.7644 149.661 16.7644 148.013V144.877H18.0604V147.965C18.0604 149.029 18.5244 149.469 19.3084 149.469C20.1004 149.469 20.5564 149.029 20.5564 147.965V144.877H21.8364V148.013C21.8364 149.661 20.8924 150.573 19.3004 150.573ZM28.0771 150.477H26.6851L25.6051 148.917H25.5411H24.4131V150.477H23.1171V144.877H25.5411C27.0371 144.877 27.9731 145.653 27.9731 146.909C27.9731 147.749 27.5491 148.365 26.8211 148.677L28.0771 150.477ZM26.6611 146.909C26.6611 146.293 26.2611 145.933 25.4691 145.933H24.4131V147.885H25.4691C26.2611 147.885 26.6611 147.517 26.6611 146.909ZM32.4256 150.477V145.933H30.6336V144.877H35.5136V145.933H33.7216V150.477H32.4256ZM40.1136 150.477L39.6176 149.277H37.0176L36.5216 150.477H35.1936L37.6896 144.877H38.9696L41.4736 150.477H40.1136ZM37.4336 148.293H39.2096L38.3216 146.149L37.4336 148.293ZM45.7605 149.229V147.589H46.9445V149.861C46.3285 150.325 45.4805 150.573 44.6805 150.573C42.9205 150.573 41.6245 149.365 41.6245 147.677C41.6245 145.989 42.9205 144.781 44.7045 144.781C45.6885 144.781 46.5045 145.117 47.0485 145.749L46.2165 146.517C45.8085 146.085 45.3365 145.885 44.7685 145.885C43.6805 145.885 42.9365 146.613 42.9365 147.677C42.9365 148.725 43.6805 149.469 44.7525 149.469C45.1045 149.469 45.4325 149.405 45.7605 149.229ZM48.1484 150.477V144.877H49.4444V149.421H52.2524V150.477H48.1484ZM52.9765 150.477V144.877H54.2725V150.477H52.9765ZM59.4575 144.877H60.7375V150.477H59.6735L56.8815 147.077V150.477H55.6015V144.877H56.6735L59.4575 148.277V144.877ZM63.3504 149.437H66.3984V150.477H62.0624V144.877H66.2944V145.917H63.3504V147.133H65.9504V148.141H63.3504V149.437ZM73.4793 149.229V147.589H74.6633V149.861C74.0473 150.325 73.1993 150.573 72.3993 150.573C70.6393 150.573 69.3433 149.365 69.3433 147.677C69.3433 145.989 70.6393 144.781 72.4233 144.781C73.4073 144.781 74.2233 145.117 74.7673 145.749L73.9353 146.517C73.5273 146.085 73.0553 145.885 72.4873 145.885C71.3993 145.885 70.6553 146.613 70.6553 147.677C70.6553 148.725 71.3993 149.469 72.4713 149.469C72.8233 149.469 73.1513 149.405 73.4793 149.229ZM78.5791 150.573C76.8111 150.573 75.5151 149.341 75.5151 147.677C75.5151 146.013 76.8111 144.781 78.5791 144.781C80.3391 144.781 81.6431 146.005 81.6431 147.677C81.6431 149.349 80.3391 150.573 78.5791 150.573ZM78.5791 149.469C79.5791 149.469 80.3311 148.741 80.3311 147.677C80.3311 146.613 79.5791 145.885 78.5791 145.885C77.5791 145.885 76.8271 146.613 76.8271 147.677C76.8271 148.741 77.5791 149.469 78.5791 149.469ZM83.9051 149.437H86.9531V150.477H82.6171V144.877H86.8491V145.917H83.9051V147.133H86.5051V148.141H83.9051V149.437ZM89.8243 150.573C88.9363 150.573 88.0403 150.309 87.5443 149.925L87.9843 148.949C88.4563 149.293 89.1603 149.533 89.8323 149.533C90.6003 149.533 90.9123 149.277 90.9123 148.933C90.9123 147.885 87.6563 148.605 87.6563 146.525C87.6563 145.573 88.4243 144.781 90.0163 144.781C90.7203 144.781 91.4403 144.949 91.9603 145.277L91.5603 146.261C91.0403 145.965 90.5043 145.821 90.0083 145.821C89.2403 145.821 88.9443 146.109 88.9443 146.461C88.9443 147.493 92.2003 146.781 92.2003 148.837C92.2003 149.773 91.4243 150.573 89.8243 150.573ZM99.1915 144.877H100.488V150.477H99.1915V148.181H96.6475V150.477H95.3515V144.877H96.6475V147.085H99.1915V144.877ZM103.1 149.437H106.148V150.477H101.812V144.877H106.044V145.917H103.1V147.133H105.7V148.141H103.1V149.437ZM112.14 150.477H110.748L109.668 148.917H109.604H108.476V150.477H107.18V144.877H109.604C111.1 144.877 112.036 145.653 112.036 146.909C112.036 147.749 111.612 148.365 110.884 148.677L112.14 150.477ZM110.724 146.909C110.724 146.293 110.324 145.933 109.532 145.933H108.476V147.885H109.532C110.324 147.885 110.724 147.517 110.724 146.909ZM114.35 149.437H117.398V150.477H113.062V144.877H117.294V145.917H114.35V147.133H116.95V148.141H114.35V149.437Z" fill="#BDBDBD"/>
</svg>
