<svg width="76" height="62" viewBox="0 0 76 62" fill="none" xmlns="http://www.w3.org/2000/svg">
<path d="M61.4656 30.0781V51.791C61.4656 51.791 58.5712 60.9999 37.9181 60.9999C17.256 60.9999 14.3616 51.791 14.3616 51.791V36.9447" stroke="#828282" stroke-width="1.5" stroke-miterlimit="10" stroke-linecap="square"/>
<path d="M28.6825 54.1243C21.5844 52.1917 20.3732 49.2972 20.3732 49.2972V45.8862" stroke="#828282" stroke-width="1.5" stroke-miterlimit="10" stroke-linecap="square"/>
<path d="M48.8191 36.4371L37.9181 42.7782L2 21.8936L37.9181 1L73.8272 21.8936L61.2697 29.1965L55.7925 32.3849" stroke="#828282" stroke-width="1.5" stroke-miterlimit="10" stroke-linecap="square"/>
<path d="M41.9434 24.3516L55.4449 32.5896V47.0887" stroke="#828282" stroke-width="1.5" stroke-miterlimit="10" stroke-linecap="square"/>
<path d="M37.918 24.7258C40.1413 24.7258 41.9436 23.4578 41.9436 21.8936C41.9436 20.3295 40.1413 19.0615 37.918 19.0615C35.6948 19.0615 33.8925 20.3295 33.8925 21.8936C33.8925 23.4578 35.6948 24.7258 37.918 24.7258Z" stroke="#828282" stroke-width="1.5" stroke-miterlimit="10" stroke-linecap="square"/>
</svg>
