<svg width="266" height="42" viewBox="0 0 266 42" fill="none" xmlns="http://www.w3.org/2000/svg">
<circle cx="21" cy="21" r="20.5" stroke="white"/>
<path d="M31.3334 14.9548C30.5856 15.2859 29.7815 15.5096 28.9368 15.6117C29.7985 15.0948 30.4599 14.277 30.7716 13.3049C29.9648 13.7811 29.073 14.1292 28.1222 14.3163C27.3613 13.5051 26.2769 13 25.0773 13C22.7736 13 20.9048 14.8659 20.9048 17.1674C20.9048 17.4945 20.9414 17.8125 21.0135 18.1173C17.5469 17.9446 14.4731 16.2855 12.4144 13.7641C12.0556 14.3804 11.85 15.0948 11.85 15.859C11.85 17.3048 12.586 18.5792 13.7057 19.329C13.0221 19.3067 12.379 19.1196 11.8159 18.8069C11.8146 18.8239 11.8146 18.8422 11.8146 18.8605C11.8146 20.8795 13.2526 22.5635 15.162 22.9481C14.8124 23.0423 14.4443 23.0934 14.0632 23.0934C13.7935 23.0934 13.5328 23.0672 13.2788 23.0175C13.8092 24.674 15.3506 25.8778 17.1762 25.9118C15.7474 27.0305 13.9493 27.6965 11.9953 27.6965C11.6574 27.6965 11.3261 27.6782 11 27.6389C12.8466 28.8218 15.0389 29.5113 17.3949 29.5113C25.0694 29.5113 29.2642 23.1614 29.2642 17.6515C29.2642 17.471 29.2603 17.2917 29.2524 17.1125C30.067 16.525 30.7742 15.7909 31.3334 14.9548Z" fill="white"/>
<circle cx="77" cy="21" r="20.5" stroke="white"/>
<path fill-rule="evenodd" clip-rule="evenodd" d="M78.2339 17.1017V15.7414C78.2339 15.0804 78.6762 14.9251 78.9871 14.9251C79.2966 14.9251 80.896 14.9251 80.896 14.9251V12.0119L78.2671 12C75.3499 12 74.6871 14.1739 74.6871 15.5635V17.1004H73V19.1549V20.5007H74.7017C74.7017 24.3535 74.7017 29 74.7017 29H78.1037C78.1037 29 78.1037 24.307 78.1037 20.5007H80.629L80.7512 19.1655L80.9385 17.1017H78.2339Z" fill="white"/>
<circle cx="133" cy="21" r="20.5" stroke="white"/>
<path d="M138.713 29.9858H126.287C125.025 29.9858 124 28.9604 124 27.7011V15.2846C124 14.0254 125.026 13 126.287 13H138.713C139.974 13 141 14.0254 141 15.2846V27.7011C141 28.9616 139.974 29.9858 138.713 29.9858ZM126.287 14.3219C125.755 14.3219 125.323 14.7542 125.323 15.2846V27.7011C125.323 28.2327 125.755 28.6639 126.287 28.6639H138.713C139.245 28.6639 139.677 28.2315 139.677 27.7011V15.2846C139.677 14.7542 139.244 14.3219 138.713 14.3219H126.287Z" fill="white"/>
<path fill-rule="evenodd" clip-rule="evenodd" d="M137.459 21.713C137.459 24.411 135.27 26.5976 132.57 26.5976C129.869 26.5976 127.681 24.411 127.681 21.713C127.681 19.0149 129.869 16.8271 132.57 16.8271C135.27 16.8283 137.459 19.0149 137.459 21.713Z" fill="white"/>
<path fill-rule="evenodd" clip-rule="evenodd" d="M138.558 16.3506C138.558 16.8786 138.13 17.3074 137.601 17.3074C137.071 17.3074 136.643 16.8786 136.643 16.3506C136.643 15.8214 137.071 15.3926 137.601 15.3926C138.129 15.3926 138.558 15.8214 138.558 16.3506Z" fill="white"/>
<circle cx="189" cy="21" r="20.5" stroke="white"/>
<path fill-rule="evenodd" clip-rule="evenodd" d="M189.219 13C184.42 13.0012 182 16.3261 182 19.1007C182 19.6127 182.062 20.1086 182.188 20.5651C182.472 21.6039 183.088 22.444 184.067 22.8314C184.3 22.9215 184.508 22.8351 184.573 22.5871C184.62 22.4156 184.73 21.9839 184.781 21.8025C184.846 21.5582 184.822 21.4731 184.635 21.2597C184.391 20.9808 184.202 20.6514 184.087 20.2493C184.01 19.9815 183.967 19.6842 183.967 19.3437C183.967 16.8751 185.879 14.6655 188.941 14.6655C191.654 14.6655 193.144 16.2681 193.144 18.4073C193.144 19.039 193.08 19.6472 192.959 20.211C192.537 22.1677 191.428 23.6 189.945 23.6C188.887 23.6 188.095 22.7574 188.348 21.7198C188.494 21.1289 188.703 20.5194 188.882 19.9433C189.079 19.3104 189.241 18.7219 189.241 18.2544C189.241 17.4561 188.796 16.7887 187.879 16.7887C186.799 16.7887 185.929 17.8682 185.929 19.3153C185.929 19.588 185.958 19.8323 185.997 20.0445C186.092 20.5503 186.251 20.8612 186.251 20.8612C186.251 20.8612 185.145 25.3876 184.951 26.1822C184.566 27.7625 184.893 29.6982 184.92 29.8931C184.936 30.0079 185.092 30.0362 185.16 29.9487C185.26 29.8216 186.548 28.2869 186.985 26.7534C187.108 26.3179 187.695 24.0688 187.695 24.0688C188.047 24.7153 189.072 25.284 190.163 25.284C192.808 25.284 194.759 23.3866 195.393 20.6107C195.537 19.9778 195.614 19.3005 195.614 18.5912C195.615 15.6981 193.076 13 189.219 13Z" fill="white"/>
<circle cx="245" cy="21" r="20.5" stroke="white"/>
<path d="M244.498 12C239.261 12 235 16.2575 235 21.4908C235 26.7252 239.261 30.9828 244.498 30.9828C249.737 30.9828 254 26.7252 254 21.4908C254 16.2575 249.739 12 244.498 12ZM253.093 21.661C250.786 21.1902 248.784 21.2266 247.065 21.5789C246.808 20.8626 246.474 20.144 246.093 19.4395C248.413 18.5765 250.041 17.3683 250.954 15.8254C252.287 17.3389 253.096 19.3209 253.096 21.4896C253.097 21.5483 253.094 21.6035 253.093 21.661ZM250.3 15.1562C249.417 16.8153 247.651 17.9143 245.639 18.6423C244.253 16.3174 242.5 14.2838 241.678 13.3785C242.563 13.0697 243.512 12.9006 244.498 12.9006C246.732 12.9018 248.769 13.7566 250.3 15.1562ZM240.787 13.746C241.417 14.427 243.287 16.5276 244.757 18.9346C241.29 19.9808 237.388 20.0595 236.025 20.0501C236.5 17.2661 238.315 14.9319 240.787 13.746ZM235.903 21.4908C235.903 21.31 235.91 21.1303 235.921 20.953C236.026 20.9554 236.145 20.9554 236.283 20.9554C237.448 20.9554 239.749 20.8884 242.246 20.4505C243.331 20.2614 244.32 20.0207 245.225 19.7378C245.601 20.4176 245.93 21.1104 246.182 21.7949C241.713 23.0524 239.344 26.4035 238.572 27.7068C236.93 26.1381 235.903 23.9331 235.903 21.4908ZM239.264 28.2974C239.848 27.229 242.021 23.8239 246.454 22.625C247.567 26.3096 247.79 28.0884 247.928 29.3671C246.877 29.825 245.717 30.081 244.498 30.081C242.53 30.081 240.714 29.4153 239.264 28.2974ZM248.788 28.9315C248.641 27.647 248.364 25.8387 247.335 22.4231C248.952 22.1155 250.842 22.1049 253.026 22.5687C252.685 25.2881 251.065 27.6153 248.788 28.9315Z" fill="white"/>
</svg>
